<svg id="Layer_3" enable-background="new 0 0 64 64" height="512" viewBox="0 0 64 64" width="512" xmlns="http://www.w3.org/2000/svg"><g><g><path d="m22 2h16v4h-16z" fill="#5d6065"/></g><g><path d="m22 2h13v4h-13z" fill="#8b9097"/></g><g><path d="m36 22c0-7.037 0-16 0-16h-12v23l-9 9v6.947c2.961 1.474 5 4.522 5 8.053 0 .688-.084 1.356-.231 2h12.231v-25l-4-4v-4z" fill="#d5d9df"/></g><g><path d="m36 15-.293-.293c-.453-.453-1.067-.707-1.707-.707-.64 0-1.254.254-1.707.707l-.586.586c-.453.453-1.067.707-1.707.707-.64 0-1.254-.254-1.707-.707l-.586-.586c-.453-.453-1.067-.707-1.707-.707-.64 0-1.254.254-1.707.707l-.293.293v14l-9 9v6.947c2.961 1.474 5 4.522 5 8.053 0 .688-.084 1.356-.231 2h12.231v-25l-4-4v-4h8c0-2.255 0-4.708 0-7z" fill="#f7d881"/></g><g><circle cx="22" cy="41" fill="#fff" r="2"/></g><g><path d="m32 51c-2.209 0-4-1.791-4-4s1.791-4 4-4z" fill="#fff"/></g><g><path d="m5 26h12v4h-12z" fill="#5d6065"/></g><g><path d="m5 26h9v4h-9z" fill="#8b9097"/></g><g><path d="m7 30v14.947c-2.961 1.473-5 4.521-5 8.053 0 4.971 4.029 9 9 9s9-4.029 9-9c0-3.532-2.039-6.58-5-8.053v-14.947z" fill="#b9c0c9"/></g><g><path d="m2 53c0 4.632 3.501 8.443 8 8.941 4.499-.498 8-4.309 8-8.941 0-3.532-2.039-6.58-5-8.053v-14.947h-6v14.947c-2.961 1.473-5 4.521-5 8.053z" fill="#d5d9df"/></g><g><path d="m11 62c4.632 0 8.443-3.501 8.941-8h-.941c-.64 0-1.254-.254-1.707-.707l-.586-.586c-.453-.453-1.067-.707-1.707-.707s-1.254.254-1.707.707l-.586.586c-.453.453-1.067.707-1.707.707s-1.254-.254-1.707-.707l-.586-.586c-.453-.453-1.067-.707-1.707-.707s-1.254.254-1.707.707l-.586.586c-.453.453-1.067.707-1.707.707h-.941c.498 4.499 4.309 8 8.941 8z" fill="#1f80aa"/></g><g><path d="m10 61.941c4.252-.471 7.607-3.9 7.964-8.185-.245-.117-.476-.268-.671-.464l-.586-.586c-.453-.452-1.067-.706-1.707-.706s-1.254.254-1.707.707l-.586.586c-.453.453-1.067.707-1.707.707s-1.254-.254-1.707-.707l-.586-.586c-.453-.453-1.067-.707-1.707-.707s-1.254.254-1.707.707l-.586.586c-.453.453-1.067.707-1.707.707h-.939c.462 4.17 3.768 7.48 7.939 7.941z" fill="#29abe2"/></g><g><path d="m28 22h34v38c0 1.105-.895 2-2 2h-26c-1.105 0-2-.895-2-2v-30l-4-4z" fill="#c7cdd4"/></g><g><path d="m59 60v-38h-31v4l4 4v30c0 1.105.895 2 2 2h23c1.105 0 2-.895 2-2z" fill="#e3e6e9"/></g><g><path d="m62 58h-30v-22l1.293-1.293c.453-.453 1.067-.707 1.707-.707.64 0 1.254.254 1.707.707l.586.586c.453.453 1.067.707 1.707.707.64 0 1.254-.254 1.707-.707l.586-.586c.453-.453 1.067-.707 1.707-.707.64 0 1.254.254 1.707.707l.586.586c.453.453 1.067.707 1.707.707.64 0 1.254-.254 1.707-.707l.586-.586c.453-.453 1.067-.707 1.707-.707.64 0 1.254.254 1.707.707l.586.586c.453.453 1.067.707 1.707.707.64 0 1.254-.254 1.707-.707l.586-.586c.453-.453 1.067-.707 1.707-.707.64 0 1.254.254 1.707.707l1.293 1.293z" fill="#71995f"/></g><g><path d="m59 34c-.64 0-1.254.254-1.707.707l-.586.586c-.453.453-1.067.707-1.707.707s-1.254-.254-1.707-.707l-.586-.586c-.453-.453-1.067-.707-1.707-.707s-1.254.254-1.707.707l-.586.586c-.453.453-1.067.707-1.707.707s-1.254-.254-1.707-.707l-.586-.586c-.453-.453-1.067-.707-1.707-.707s-1.254.254-1.707.707l-.586.586c-.453.453-1.067.707-1.707.707s-1.254-.254-1.707-.707l-.586-.586c-.453-.453-1.067-.707-1.707-.707s-1.254.254-1.707.707l-1.293 1.293v22h27z" fill="#96cc7f"/></g><g><circle cx="56" cy="49" fill="#fff" r="2"/></g><g><circle cx="48" cy="42" fill="#fff" r="2"/></g><g><circle cx="39" cy="51" fill="#fff" r="3"/></g><g><path d="m60 63h-26c-1.654 0-3-1.346-3-3v-29.586l-3.707-3.707c-.188-.187-.293-.441-.293-.707v-4c0-.553.448-1 1-1h34c.552 0 1 .447 1 1v38c0 1.654-1.346 3-3 3zm-31-37.414 3.707 3.707c.188.187.293.441.293.707v30c0 .552.449 1 1 1h26c.551 0 1-.448 1-1v-37h-32z"/></g><g><path d="m35 6h2v16h-2z"/></g><g><path d="m20 54h12v2h-12z"/></g><g><path d="m15.707 38.707-1.414-1.414 8.707-8.707v-22.586h2v23c0 .266-.105.52-.293.707z"/></g><g><path d="m38 7h-16c-.552 0-1-.447-1-1v-4c0-.553.448-1 1-1h16c.552 0 1 .447 1 1v4c0 .553-.448 1-1 1zm-15-2h14v-2h-14z"/></g><g><path d="m20 55h-1c-.913 0-1.77-.355-2.415-1l-.585-.586c-.534-.535-1.466-.535-2 0l-.586.586c-1.288 1.289-3.54 1.289-4.829 0l-.585-.586c-.534-.535-1.466-.535-2 0l-.586.586c-.644.645-1.501 1-2.414 1h-1v-2h1c.378 0 .733-.146 1-.414l.586-.586c1.288-1.289 3.54-1.289 4.829 0l.585.586c.534.535 1.466.535 2 0l.586-.586c1.288-1.289 3.54-1.289 4.829 0l.585.586c.267.268.622.414 1 .414h1z"/></g><g><path d="m17 31h-12c-.552 0-1-.447-1-1v-4c0-.553.448-1 1-1h12c.552 0 1 .447 1 1v4c0 .553-.448 1-1 1zm-11-2h10v-2h-10z"/></g><g><path d="m11 63c-5.514 0-10-4.486-10-10 0-3.604 1.9-6.864 5-8.651v-14.349h2v14.946c0 .38-.215.727-.554.896-2.742 1.364-4.446 4.107-4.446 7.158 0 4.411 3.589 8 8 8s8-3.589 8-8c0-3.051-1.704-5.794-4.446-7.158-.339-.169-.554-.516-.554-.896v-14.946h2v14.349c3.1 1.787 5 5.047 5 8.651 0 5.514-4.486 10-10 10z"/></g><g><path d="m30 17c-.913 0-1.77-.355-2.415-1l-.585-.586c-.534-.535-1.466-.535-2 0l-.293.293-1.414-1.414.293-.293c1.288-1.289 3.54-1.289 4.829 0l.585.586c.534.535 1.466.535 2 0l.586-.586c1.288-1.289 3.54-1.289 4.829 0l.292.293-1.414 1.414-.293-.293c-.534-.535-1.466-.535-2 0l-.586.586c-.644.645-1.501 1-2.414 1z"/></g><g><path d="m22 44c-1.654 0-3-1.346-3-3s1.346-3 3-3 3 1.346 3 3-1.346 3-3 3zm0-4c-.551 0-1 .448-1 1s.449 1 1 1 1-.448 1-1-.449-1-1-1z"/></g><g><path d="m32 52c-2.757 0-5-2.243-5-5s2.243-5 5-5v2c-1.654 0-3 1.346-3 3s1.346 3 3 3z"/></g><g><path d="m55 37c-.913 0-1.77-.355-2.415-1l-.585-.586c-.534-.535-1.466-.535-2 0l-.586.586c-1.288 1.289-3.54 1.289-4.829 0l-.585-.586c-.534-.535-1.466-.535-2 0l-.586.586c-1.288 1.289-3.54 1.289-4.829 0l-.585-.586c-.534-.535-1.466-.535-2 0l-1.293 1.293-1.414-1.414 1.293-1.293c1.288-1.289 3.54-1.289 4.829 0l.585.586c.534.535 1.466.535 2 0l.586-.586c1.288-1.289 3.54-1.289 4.829 0l.585.586c.534.535 1.466.535 2 0l.586-.586c1.288-1.289 3.54-1.289 4.829 0l.585.586c.534.535 1.466.535 2 0l.586-.586c1.288-1.289 3.54-1.289 4.829 0l1.292 1.293-1.414 1.414-1.293-1.293c-.534-.535-1.466-.535-2 0l-.586.586c-.644.645-1.501 1-2.414 1z"/></g><g><path d="m32 57h30v2h-30z"/></g><g><path d="m39 55c-2.206 0-4-1.794-4-4s1.794-4 4-4 4 1.794 4 4-1.794 4-4 4zm0-6c-1.103 0-2 .897-2 2s.897 2 2 2 2-.897 2-2-.897-2-2-2z"/></g><g><path d="m56 52c-1.654 0-3-1.346-3-3s1.346-3 3-3 3 1.346 3 3-1.346 3-3 3zm0-4c-.551 0-1 .448-1 1s.449 1 1 1 1-.448 1-1-.449-1-1-1z"/></g><g><path d="m48 45c-1.654 0-3-1.346-3-3s1.346-3 3-3 3 1.346 3 3-1.346 3-3 3zm0-4c-.551 0-1 .448-1 1s.449 1 1 1 1-.448 1-1-.449-1-1-1z"/></g><g><path d="m9 23h-2v-1c0-.911.355-1.769 1-2.414l.586-.586c.267-.268.414-.622.414-1 0-.911.355-1.769 1-2.414l.586-.586c.267-.268.414-.622.414-1v-1h2v1c0 .911-.355 1.769-1 2.414l-.586.586c-.267.268-.414.622-.414 1 0 .911-.355 1.769-1 2.414l-.586.586c-.267.268-.414.622-.414 1z"/></g><g><path d="m15 23h-2v-1c0-.911.355-1.769 1-2.414l.586-.586c.267-.268.414-.622.414-1 0-.911.355-1.769 1-2.414l.586-.586c.267-.268.414-.622.414-1v-1h2v1c0 .911-.355 1.769-1 2.414l-.586.586c-.267.268-.414.622-.414 1 0 .911-.355 1.769-1 2.414l-.586.586c-.267.268-.414.622-.414 1z"/></g></g></svg>